<svg xmlns="http://www.w3.org/2000/svg" viewBox="0 0 512 512" width="512" height="512">
  <defs>
    <linearGradient id="bg" x1="0" y1="0" x2="1" y2="1">
      <stop offset="0%" stop-color="#8b35ff"/>
      <stop offset="50%" stop-color="#7b3cff"/>
      <stop offset="100%" stop-color="#2f72ff"/>
    </linearGradient>
    <linearGradient id="t" x1="0" y1="0" x2="0" y2="1">
      <stop offset="0%" stop-color="#ffffff"/>
      <stop offset="100%" stop-color="#f1edff"/>
    </linearGradient>
    <filter id="shadow" x="-30%" y="-30%" width="160%" height="160%">
      <feDropShadow dx="0" dy="14" stdDeviation="20" flood-color="#101026" flood-opacity=".28"/>
    </filter>
  </defs>

  <!-- clean rounded app icon -->
  <rect x="64" y="64" width="384" height="384" rx="108" fill="url(#bg)" filter="url(#shadow)"/>

  <!-- soft light reflection -->
  <path d="M172 82h108c80 0 132 52 132 132v28c-48-45-108-67-184-67-61 0-112 15-164 44v-25c0-70 38-112 108-112z"
        fill="#fff" opacity=".10"/>

  <!-- Tafa T -->
  <path d="M132 151
           C132 139 141 130 153 130
           H359
           C371 130 380 139 380 151
           V188
           C380 200 371 209 359 209
           H294
           V361
           C294 374 285 383 272 383
           H240
           C227 383 218 374 218 361
           V209
           H153
           C141 209 132 200 132 188Z"
        fill="url(#t)"/>

  <!-- subtle inner highlight -->
  <path d="M153 151h206v21H271v190h-30V172H153z"
        fill="#fff" opacity=".18"/>

  <!-- small social accent -->
  <circle cx="382" cy="382" r="10" fill="#fff" opacity=".9"/>
</svg>